<?xml version="1.0" encoding="iso-8859-1"?>
<!-- Generator: Adobe Illustrator 19.0.0, SVG Export Plug-In . SVG Version: 6.00 Build 0)  -->
<svg version="1.1" id="Capa_1" xmlns="http://www.w3.org/2000/svg" xmlns:xlink="http://www.w3.org/1999/xlink" x="0px" y="0px"
	 viewBox="0 0 512.002 512.002" style="enable-background:new 0 0 512.002 512.002;" xml:space="preserve">
<g>
	
	<path style="fill:#FCC69D;" d="M470.693,388.682l-4.019-15.087c-5.303-19.906-18.311-36.883-36.152-47.183l-25.256-14.582l0,0
		l-50.891-29.382c-7.568-4.369-17.244-1.776-21.614,5.791l0,0c-4.183,7.245-1.972,16.41,4.863,21.013l-13.009-7.511
		c-6.926-3.998-15.923-2.535-20.782,3.816c-5.703,7.453-3.727,17.797,3.679,22.785l-11.664-6.734
		c-6.902-3.985-16.596-2.125-21.167,4.403c-5.401,7.713-2.951,18.212,5.025,22.817l11.985,6.92
		c-8.023-3.92-17.969-0.46-21.572,8.206c-3.07,7.384,0.161,15.908,7.086,19.906l70.102,40.474c2.385,1.377,0.828,5.024-1.816,4.255
		l-16.883-4.913c-8.216-2.391-17.104,1.774-20.073,9.799c-3.158,8.534,1.341,17.983,9.942,20.918l40.527,13.832
		c14.589,4.979,30.331,5.496,45.215,1.485l23.324-6.285l31.308,18.076l43.152-74.742L470.693,388.682z"/>
</g>
<path d="M507,398.097l-27.713-16l-2.951-11.076c-6.031-22.638-20.526-41.556-40.814-53.27l-44.099-25.461l-32.049-18.503
	c-5.974-3.449-12.933-4.365-19.594-2.58c-6.662,1.785-12.231,6.058-15.679,12.031c-1.236,2.14-2.121,4.387-2.689,6.673
	c-3.845-0.772-7.845-0.66-11.744,0.386c-6.662,1.785-12.231,6.058-15.679,12.031c-1.32,2.287-2.266,4.719-2.834,7.222
	c-10.093-1.383-20.501,3.31-25.901,12.662c-5.4,9.353-4.26,20.713,1.985,28.762c-1.884,1.744-3.518,3.779-4.838,6.066
	c-7.119,12.331-2.879,28.155,9.451,35.274l40.342,23.292c-5.885,2.885-10.695,7.955-13.088,14.529
	c-2.425,6.663-2.075,13.854,0.986,20.25c3.062,6.396,8.443,11.179,15.153,13.469l40.526,13.832
	c16.531,5.643,34.183,6.222,51.047,1.678l19.317-5.206l27.713,16c1.575,0.909,3.294,1.342,4.991,1.341
	c3.456,0,6.817-1.793,8.669-5.001c2.762-4.783,1.123-10.899-3.66-13.66l-31.308-18.076c-2.301-1.329-5.036-1.688-7.602-0.995
	l-23.324,6.285c-13.01,3.507-26.629,3.059-39.383-1.294l-40.527-13.832c-1.582-0.54-2.851-1.668-3.573-3.176
	s-0.804-3.204-0.232-4.775c1.107-3.044,4.413-4.717,7.523-3.814l17.261,5.023c6.083,1.772,12.301-1.173,14.788-7
	c2.486-5.826,0.31-12.353-5.176-15.52l-70.443-40.67c-2.78-1.605-3.736-5.173-2.131-7.954c0.778-1.347,2.033-2.31,3.535-2.713
	c1.254-0.336,2.55-0.242,3.727,0.247l36.786,21.238c1.575,0.909,3.294,1.342,4.991,1.341c2.753,0,5.433-1.154,7.351-3.239
	c0.511-0.55,0.97-1.161,1.347-1.811c2.762-4.783,1.123-10.899-3.66-13.66l-36.122-20.855c-0.472-0.272-0.952-0.523-1.435-0.764
	l-11.535-6.659c-2.78-1.605-3.736-5.173-2.131-7.954c0.778-1.347,2.033-2.31,3.536-2.713c1.503-0.402,3.071-0.195,4.417,0.582
	l11.537,6.661c0.449,0.298,0.906,0.587,1.376,0.859l36.122,20.855c1.575,0.909,3.294,1.342,4.991,1.341
	c2.754,0,5.434-1.155,7.352-3.241c0.511-0.549,0.968-1.16,1.346-1.809c2.762-4.783,1.123-10.899-3.66-13.66l-36.617-21.141
	c-1.093-0.782-1.894-1.887-2.247-3.202c-0.402-1.502-0.196-3.071,0.582-4.418s2.033-2.311,3.536-2.713
	c1.501-0.402,3.071-0.196,4.418,0.582l12.919,7.459c0.446,0.296,0.901,0.584,1.371,0.856l21.805,12.589
	c1.575,0.909,3.294,1.342,4.991,1.341c2.753,0,5.434-1.155,7.351-3.24c0.511-0.551,0.967-1.161,1.346-1.81
	c2.762-4.783,1.123-10.899-3.66-13.66l-22.464-12.97c-2.281-1.75-2.975-4.968-1.5-7.524c0.778-1.347,2.033-2.311,3.535-2.713
	c1.504-0.401,3.071-0.196,4.418,0.582l30.338,17.516l0,0l1.711,0.988l18.843,10.879c0,0,0.001,0,0.001,0.001l25.255,14.581
	c15.653,9.038,26.835,23.633,31.488,41.098l4.02,15.086c0.684,2.567,2.362,4.757,4.663,6.085l31.308,18.076
	c1.575,0.909,3.294,1.341,4.991,1.341c3.456,0,6.817-1.793,8.669-5.001C513.422,406.975,511.783,400.859,507,398.097z"/>
<g>
</g>
<g>
</g>
<g>
</g>
<g>
</g>
<g>
</g>
<g>
</g>
<g>
</g>
<g>
</g>
<g>
</g>
<g>
</g>
<g>
</g>
<g>
</g>
<g>
</g>
<g>
</g>
<g>
</g>
</svg>
